<svg width="1280" height="832" viewBox="0 0 1280 832" fill="none" xmlns="http://www.w3.org/2000/svg">
<g clip-path="url(#clip0_1_2)">
<rect width="1280" height="832" fill="#3D3D3D"/>
<path d="M1144.59 494.238C1146.48 490.717 1151.52 490.717 1153.41 494.238L1353.77 868.641C1355.56 871.972 1353.14 876 1349.37 876H948.635C944.857 876 942.444 871.972 944.226 868.641L1144.59 494.238Z" fill="#505050"/>
<path d="M468.202 307.231C470.14 303.971 474.86 303.971 476.798 307.231L785.408 826.445C787.389 829.778 784.987 834 781.11 834H163.89C160.013 834 157.611 829.778 159.592 826.445L468.202 307.231Z" fill="#424242"/>
<path d="M199.25 381.253C201.24 378.995 204.76 378.995 206.75 381.253L607.037 835.193C609.884 838.422 607.592 843.5 603.287 843.5H-197.287C-201.592 843.5 -203.884 838.422 -201.037 835.193L199.25 381.253Z" fill="#454545"/>
<path d="M1245.72 324.634C1247.16 319.917 1253.84 319.917 1255.28 324.634L1422.16 870.288C1423.14 873.501 1420.74 876.75 1417.38 876.75H1083.62C1080.26 876.75 1077.86 873.501 1078.84 870.288L1245.72 324.634Z" fill="#585858"/>
</g>
<defs>
<clipPath id="clip0_1_2">
<rect width="1280" height="832" fill="white"/>
</clipPath>
</defs>
</svg>
