<svg width="70" height="70" viewBox="0 0 70 70" fill="none" xmlns="http://www.w3.org/2000/svg">
<g clip-path="url(#clip0_1_24)">
<path d="M8.75 0C6.42936 0 4.20376 0.921872 2.56282 2.56282C0.921872 4.20376 0 6.42936 0 8.75L0 61.25C0 63.5706 0.921872 65.7962 2.56282 67.4372C4.20376 69.0781 6.42936 70 8.75 70H61.25C63.5706 70 65.7962 69.0781 67.4372 67.4372C69.0781 65.7962 70 63.5706 70 61.25V8.75C70 6.42936 69.0781 4.20376 67.4372 2.56282C65.7962 0.921872 63.5706 0 61.25 0L8.75 0ZM37.1875 19.6875V32.8125H50.3125C50.8927 32.8125 51.4491 33.043 51.8593 33.4532C52.2695 33.8634 52.5 34.4198 52.5 35C52.5 35.5802 52.2695 36.1366 51.8593 36.5468C51.4491 36.957 50.8927 37.1875 50.3125 37.1875H37.1875V50.3125C37.1875 50.8927 36.957 51.4491 36.5468 51.8593C36.1366 52.2695 35.5802 52.5 35 52.5C34.4198 52.5 33.8634 52.2695 33.4532 51.8593C33.043 51.4491 32.8125 50.8927 32.8125 50.3125V37.1875H19.6875C19.1073 37.1875 18.5509 36.957 18.1407 36.5468C17.7305 36.1366 17.5 35.5802 17.5 35C17.5 34.4198 17.7305 33.8634 18.1407 33.4532C18.5509 33.043 19.1073 32.8125 19.6875 32.8125H32.8125V19.6875C32.8125 19.1073 33.043 18.5509 33.4532 18.1407C33.8634 17.7305 34.4198 17.5 35 17.5C35.5802 17.5 36.1366 17.7305 36.5468 18.1407C36.957 18.5509 37.1875 19.1073 37.1875 19.6875Z" fill="#D6D6D6"/>
</g>
<defs>
<clipPath id="clip0_1_24">
<rect width="70" height="70" fill="white"/>
</clipPath>
</defs>
</svg>
